<svg width="70" height="70" viewBox="0 0 78 78" fill="none" xmlns="http://www.w3.org/2000/svg">
<path d="M57.75 29V30.25C57.75 30.4158 57.6842 30.5748 57.5669 30.692C57.4497 30.8092 57.2908 30.875 57.125 30.875H55.25V31.8125C55.25 32.3303 54.8302 32.75 54.3125 32.75H23.6875C23.1698 32.75 22.75 32.3303 22.75 31.8125V30.875H20.875C20.7092 30.875 20.5503 30.8092 20.4331 30.692C20.3158 30.5748 20.25 30.4158 20.25 30.25V29C20.25 28.8764 20.2867 28.7555 20.3554 28.6527C20.4241 28.5499 20.5218 28.4698 20.636 28.4225L38.761 21.5475C38.914 21.4842 39.086 21.4842 39.239 21.5475L57.364 28.4225C57.4782 28.4698 57.5759 28.5499 57.6446 28.6527C57.7133 28.7555 57.75 28.8764 57.75 29ZM55.875 52.75H22.125C21.0895 52.75 20.25 53.5895 20.25 54.625V55.875C20.25 56.0408 20.3158 56.1998 20.4331 56.317C20.5503 56.4342 20.7092 56.5 20.875 56.5H57.125C57.2908 56.5 57.4497 56.4342 57.5669 56.317C57.6842 56.1998 57.75 56.0408 57.75 55.875V54.625C57.75 53.5895 56.9105 52.75 55.875 52.75ZM26.5 34V49H23.6875C23.1698 49 22.75 49.4198 22.75 49.9375V51.5H55.25V49.9375C55.25 49.4198 54.8302 49 54.3125 49H51.5V34H46.5V49H41.5V34H36.5V49H31.5V34H26.5Z" fill="#40C3D4"/>
<rect x="2" y="2" width="74" height="74" rx="37" stroke="#40C3D4" stroke-width="4"/>
</svg>
