<svg width="113" height="32" viewBox="0 0 113 32" fill="none" xmlns="http://www.w3.org/2000/svg">
<path d="M46.8103 14.324C46.8103 14.996 46.6483 15.626 46.3242 16.214C46.0123 16.802 45.5143 17.276 44.8303 17.636C44.1583 17.996 43.3063 18.176 42.2743 18.176H40.1683V23H37.6483V10.436H42.2743C43.2463 10.436 44.0743 10.604 44.7583 10.94C45.4423 11.276 45.9523 11.738 46.2883 12.326C46.6363 12.914 46.8103 13.58 46.8103 14.324ZM42.1663 16.142C42.8623 16.142 43.3783 15.986 43.7143 15.674C44.0503 15.35 44.2183 14.9 44.2183 14.324C44.2183 13.1 43.5343 12.488 42.1663 12.488H40.1683V16.142H42.1663ZM53.0274 23.162C52.0674 23.162 51.2034 22.952 50.4354 22.532C49.6674 22.1 49.0614 21.494 48.6174 20.714C48.1854 19.934 47.9694 19.034 47.9694 18.014C47.9694 16.994 48.1914 16.094 48.6354 15.314C49.0914 14.534 49.7094 13.934 50.4894 13.514C51.2694 13.082 52.1394 12.866 53.0994 12.866C54.0594 12.866 54.9294 13.082 55.7094 13.514C56.4894 13.934 57.1014 14.534 57.5454 15.314C58.0014 16.094 58.2294 16.994 58.2294 18.014C58.2294 19.034 57.9954 19.934 57.5274 20.714C57.0714 21.494 56.4474 22.1 55.6554 22.532C54.8754 22.952 53.9994 23.162 53.0274 23.162ZM53.0274 20.966C53.4834 20.966 53.9094 20.858 54.3054 20.642C54.7134 20.414 55.0374 20.078 55.2774 19.634C55.5174 19.19 55.6374 18.65 55.6374 18.014C55.6374 17.066 55.3854 16.34 54.8814 15.836C54.3894 15.32 53.7834 15.062 53.0634 15.062C52.3434 15.062 51.7374 15.32 51.2454 15.836C50.7654 16.34 50.5254 17.066 50.5254 18.014C50.5254 18.962 50.7594 19.694 51.2274 20.21C51.7074 20.714 52.3074 20.966 53.0274 20.966ZM62.5979 14.576C62.9219 14.048 63.3419 13.634 63.8579 13.334C64.3859 13.034 64.9859 12.884 65.6579 12.884V15.53H64.9919C64.1999 15.53 63.5999 15.716 63.1919 16.088C62.7959 16.46 62.5979 17.108 62.5979 18.032V23H60.0779V13.028H62.5979V14.576ZM70.2893 15.098V19.922C70.2893 20.258 70.3673 20.504 70.5233 20.66C70.6913 20.804 70.9673 20.876 71.3513 20.876H72.5213V23H70.9373C68.8133 23 67.7513 21.968 67.7513 19.904V15.098H66.5633V13.028H67.7513V10.562H70.2893V13.028H72.5213V15.098H70.2893Z" fill="white"/>
<path d="M78.9058 15.098H77.1598V23H74.6038V15.098H73.4698V13.028H74.6038V12.524C74.6038 11.3 74.9518 10.4 75.6478 9.824C76.3438 9.248 77.3938 8.978 78.7978 9.014V11.138C78.1858 11.126 77.7598 11.228 77.5198 11.444C77.2798 11.66 77.1598 12.05 77.1598 12.614V13.028H78.9058V15.098ZM84.9669 23.162C84.0069 23.162 83.1429 22.952 82.3749 22.532C81.6069 22.1 81.0009 21.494 80.5569 20.714C80.1249 19.934 79.9089 19.034 79.9089 18.014C79.9089 16.994 80.1309 16.094 80.5749 15.314C81.0309 14.534 81.6489 13.934 82.4289 13.514C83.2089 13.082 84.0789 12.866 85.0389 12.866C85.9989 12.866 86.8689 13.082 87.6489 13.514C88.4289 13.934 89.0409 14.534 89.4849 15.314C89.9409 16.094 90.1689 16.994 90.1689 18.014C90.1689 19.034 89.9349 19.934 89.4669 20.714C89.0109 21.494 88.3869 22.1 87.5949 22.532C86.8149 22.952 85.9389 23.162 84.9669 23.162ZM84.9669 20.966C85.4229 20.966 85.8489 20.858 86.2449 20.642C86.6529 20.414 86.9769 20.078 87.2169 19.634C87.4569 19.19 87.5769 18.65 87.5769 18.014C87.5769 17.066 87.3249 16.34 86.8209 15.836C86.3289 15.32 85.7229 15.062 85.0029 15.062C84.2829 15.062 83.6769 15.32 83.1849 15.836C82.7049 16.34 82.4649 17.066 82.4649 18.014C82.4649 18.962 82.6989 19.694 83.1669 20.21C83.6469 20.714 84.2469 20.966 84.9669 20.966ZM94.5374 9.68V23H92.0174V9.68H94.5374ZM98.3052 11.84C97.8612 11.84 97.4892 11.702 97.1892 11.426C96.9012 11.138 96.7572 10.784 96.7572 10.364C96.7572 9.944 96.9012 9.596 97.1892 9.32C97.4892 9.032 97.8612 8.888 98.3052 8.888C98.7492 8.888 99.1152 9.032 99.4032 9.32C99.7032 9.596 99.8532 9.944 99.8532 10.364C99.8532 10.784 99.7032 11.138 99.4032 11.426C99.1152 11.702 98.7492 11.84 98.3052 11.84ZM99.5472 13.028V23H97.0272V13.028H99.5472ZM106.465 23.162C105.505 23.162 104.641 22.952 103.873 22.532C103.105 22.1 102.499 21.494 102.055 20.714C101.623 19.934 101.407 19.034 101.407 18.014C101.407 16.994 101.629 16.094 102.073 15.314C102.529 14.534 103.147 13.934 103.927 13.514C104.707 13.082 105.577 12.866 106.537 12.866C107.497 12.866 108.367 13.082 109.147 13.514C109.927 13.934 110.539 14.534 110.983 15.314C111.439 16.094 111.667 16.994 111.667 18.014C111.667 19.034 111.433 19.934 110.965 20.714C110.509 21.494 109.885 22.1 109.093 22.532C108.313 22.952 107.437 23.162 106.465 23.162ZM106.465 20.966C106.921 20.966 107.347 20.858 107.743 20.642C108.151 20.414 108.475 20.078 108.715 19.634C108.955 19.19 109.075 18.65 109.075 18.014C109.075 17.066 108.823 16.34 108.319 15.836C107.827 15.32 107.221 15.062 106.501 15.062C105.781 15.062 105.175 15.32 104.683 15.836C104.203 16.34 103.963 17.066 103.963 18.014C103.963 18.962 104.197 19.694 104.665 20.21C105.145 20.714 105.745 20.966 106.465 20.966Z" fill="#5CE1E6"/>
<path d="M16.4063 0C13.2417 -3.77363e-08 10.1483 0.938383 7.51713 2.69649C4.88594 4.45459 2.83518 6.95345 1.62418 9.87706C0.413176 12.8007 0.096322 16.0177 0.713685 19.1214C1.33105 22.2251 2.8549 25.0761 5.09254 27.3137C7.33018 29.5513 10.1811 31.0752 13.2848 31.6926C16.3885 32.3099 19.6056 31.9931 22.5292 30.7821C25.4528 29.5711 27.9517 27.5203 29.7098 24.8891C31.4679 22.2579 32.4062 19.1645 32.4062 16L24.4062 16C24.4062 17.5823 23.9371 19.129 23.058 20.4446C22.179 21.7602 20.9295 22.7855 19.4677 23.391C18.0059 23.9965 16.3974 24.155 14.8455 23.8463C13.2937 23.5376 11.8682 22.7757 10.7494 21.6569C9.63057 20.538 8.86865 19.1126 8.55997 17.5607C8.25129 16.0089 8.40971 14.4003 9.01521 12.9385C9.62072 11.4767 10.6461 10.2273 11.9617 9.34824C13.2773 8.46919 14.824 8 16.4063 8L16.4063 0Z" fill="white"/>
<path d="M16.4063 0C14.3051 -2.5056e-08 12.2245 0.413852 10.2833 1.21793C8.34211 2.022 6.57828 3.20055 5.09254 4.68629C3.6068 6.17203 2.42825 7.93586 1.62418 9.87707C0.820102 11.8183 0.40625 13.8989 0.40625 16L8.40625 16C8.40625 14.9494 8.61318 13.9091 9.01521 12.9385C9.41725 11.9679 10.0065 11.086 10.7494 10.3431C11.4923 9.60028 12.3742 9.011 13.3448 8.60896C14.3154 8.20693 15.3557 8 16.4063 8L16.4063 0Z" fill="#5CE1E6"/>
<circle cx="16.4062" cy="16" r="5" fill="#5CE1E6"/>
<path d="M21.4062 16C21.4062 15.3434 21.2769 14.6932 21.0256 14.0866C20.7744 13.48 20.4061 12.9288 19.9418 12.4645C19.4775 12.0002 18.9263 11.6319 18.3197 11.3806C17.713 11.1293 17.0629 11 16.4062 11C15.7496 11 15.0995 11.1293 14.4928 11.3806C13.8862 11.6319 13.335 12.0002 12.8707 12.4645C12.4064 12.9288 12.0381 13.48 11.7869 14.0866C11.5356 14.6932 11.4062 15.3434 11.4063 16L16.4062 16H21.4062Z" fill="white"/>
</svg>
